<svg version="1.0" xmlns="http://www.w3.org/2000/svg"
 width="548.000000pt" height="424.000000pt" viewBox="0 0 548.000000 424.000000"
 preserveAspectRatio="xMidYMid meet">
<metadata>
Created by potrace 1.16, written by Peter Selinger 2001-2019
</metadata>
<g transform="translate(0.000000,424.000000) scale(0.100000,-0.100000)"
fill="inherit" stroke="none">
<path d="M150 4178 c0 -3 34 -77 76 -164 443 -927 1071 -2297 1391 -3039 111
-257 308 -744 348 -862 l28 -83 792 0 791 0 409 933 c225 512 633 1442 907
2066 274 624 496 1136 493 1139 -2 3 -82 -4 -177 -14 -210 -23 -568 -25 -740
-5 -65 7 -121 13 -125 13 -8 -1 -3 9 -343 -812 -636 -1541 -855 -2051 -1044
-2440 -77 -159 -123 -240 -136 -240 -23 0 -279 541 -508 1075 -211 492 -651
1577 -948 2339 l-38 98 -81 -6 c-310 -25 -831 -25 -1037 0 -32 4 -58 5 -58 2z"/>
</g>
</svg>
